{"title":"The.Lobster.2015.WEBRip.480p.x264.AAC-VYTO [P2PDL]","uid":13019354,"size":433325290,"categoryP":"video","categoryS":"movies","magnet":"?xt=urn:btih:a32dd72c552900502b360290954b1ac7c6dabe06&amp;dn=The.Lobster.2015.WEBRip.480p.x264.AAC-VYTO+%5BP2PDL%5D&amp;tr=udp%3A%2F%2Ftracker.leechers-paradise.org%3A6969&amp;tr=udp%3A%2F%2Fzer0day.ch%3A1337&amp;tr=udp%3A%2F%2Fopen.demonii.com%3A1337&amp;tr=udp%3A%2F%2Ftracker.coppersurfer.tk%3A6969&amp;tr=udp%3A%2F%2Fexodus.desync.com%3A6969","seeders":1,"leechers":2,"uploader":"VYTOP2PDL","files":6,"time":1450331316,"description":"The.Lobster.2015.WEBRip.480p.x264.AAC-VYTO\r\n\r\n\r\nGenre:  Comedy, Romance, Sci-Fi   \nhttp://www.imdb.com/title/tt3464902/\r\n\r\n\r\nGeneral\r\nFormat                                   : MPEG-4\r\nFile size                                : 402 MiB\r\nDuration                                 : 1h 56mn\r\nOverall bit rate                         : 483 Kbps\r\n\r\nVideo\r\nFormat                                   : AVC\r\nBit rate                                 : 448 Kbps\r\nWidth                                    : 720 pixels\r\nHeight                                   : 400 pixels\r\nDisplay aspect ratio                     : 16:9\r\nFrame rate mode                          : Constant\r\nFrame rate                               : 24.000 fps\r\nBit depth                                : 8 bits\r\nStream size                              : 372 MiB (93%)\r\nWriting library                          : x264\r\n\r\nAudio\r\nFormat                                   : AAC\r\nBit rate mode                            : Variable\r\nBit rate                                 : 31.9 Kbps\r\nChannel(s)                               : 2 channels\r\nChannel positions                        : Front: L R\r\nSampling rate                            : 48.0 KHz\r\nStream size                              : 26.5 MiB (7%)\r\nLanguage                                 : English\r\n\r\nSubtitle                                 : N/a\r\n\r\nScreen shots: (Click to view)\r\n \nhttp://ititli.com/Px \nhttp://ititli.com/P7 \nhttp://ititli.com/PC \nhttp://ititli.com/PF \nhttp://ititli.com/PJ \nhttp://ititli.com/P5 \nhttp://ititli.com/PB \nhttp://ititli.com/PN \nhttp://ititli.com/PP\r\n\r\n----------------------------------------------------------------------------------------------------\r\n\r\n\r\nEncoder Notes: Looking For Early Access To Anything You Can Provide WEBDL, DVDScr, DVDR, BluRay,\r\nDirect Audio, Music Releases and Seedboxes. If You Got anything to offer please contact us.\r\n\r\nSupport us by donating BC - 1FgwdzPsd1y25Gea8wP1qni35uGCtmkRCD\r\n\r\nSend some love!\r\nFind us and join us!","torrent":{"xt":"urn:btih:a32dd72c552900502b360290954b1ac7c6dabe06","amp;dn":"The.Lobster.2015.WEBRip.480p.x264.AAC-VYTO+%5BP2PDL%5D","amp;tr":["udp%3A%2F%2Ftracker.leechers-paradise.org%3A6969","udp%3A%2F%2Fzer0day.ch%3A1337","udp%3A%2F%2Fopen.demonii.com%3A1337","udp%3A%2F%2Ftracker.coppersurfer.tk%3A6969","udp%3A%2F%2Fexodus.desync.com%3A6969"],"infoHash":"a32dd72c552900502b360290954b1ac7c6dabe06","infoHashBuffer":{"type":"Buffer","data":[163,45,215,44,85,41,0,80,43,54,2,144,149,75,26,199,198,218,190,6]},"announce":[],"urlList":[]}}